<?xml version="1.0" encoding="utf-8"?>
<!-- Generator: Adobe Illustrator 19.0.0, SVG Export Plug-In . SVG Version: 6.00 Build 0)  -->
<svg version="1.1" id="Camada_1" xmlns="http://www.w3.org/2000/svg" xmlns:xlink="http://www.w3.org/1999/xlink" x="0px" y="0px"
	 viewBox="560 -200 1920 1000" style="enable-background:new 560 -200 1920 1000;" xml:space="preserve">
<style type="text/css">
	.st0{fill:none;}
	.st1{clip-path:url(#SVGID_2_);fill:url(#SVGID_3_);}
	.st2{fill:url(#SVGID_4_);}
</style>
<rect x="477.8" y="343.8" class="st0" width="2002.3" height="472.9"/>
<g>
	<defs>
		<rect id="SVGID_1_" x="477.8" y="343.8" width="2002.3" height="472.9"/>
	</defs>
	<clipPath id="SVGID_2_">
		<use xlink:href="#SVGID_1_"  style="overflow:visible;"/>
	</clipPath>
	
		<linearGradient id="SVGID_3_" gradientUnits="userSpaceOnUse" x1="1130.2" y1="24.3443" x2="2523.1887" y2="24.3443" gradientTransform="matrix(1 0 0 -1 0 600)">
		<stop  offset="0" style="stop-color:#5E17EB"/>
		<stop  offset="1" style="stop-color:#5E17EB;stop-opacity:0.7"/>
	</linearGradient>
	<path class="st1" d="M1130.2,670.9c129.2-102.3,299.6-137,464.1-145.7c164.6-8.7,330.3,5.4,494-13.8
		c126.6-14.8,250.8-49.6,366.6-102.6c16.8-7.7,37.2-15.6,52.8-5.6c17,10.9,16.7,35.5,14.3,55.6c-8,68.4-19.7,144-73.3,187.2
		c-32.6,26.2-75.2,35.6-116.3,43.5c-284.4,54.4-575.4,73.9-864.6,57.9C1351.7,740.8,1232,727.5,1130.2,670.9L1130.2,670.9z"/>
</g>
<linearGradient id="SVGID_4_" gradientUnits="userSpaceOnUse" x1="647.3001" y1="-95.3356" x2="2595.2766" y2="-95.3356" gradientTransform="matrix(1 0 0 -1 0 600)">
	<stop  offset="0" style="stop-color:#5E17EB"/>
	<stop  offset="1" style="stop-color:#5415FF"/>
</linearGradient>
<path class="st2" d="M1805.5,645.7c212.2-21.9,411.9-126,625.1-129.2c37.4-0.6,77.2,2.8,107.4,25c48.3,35.5,54.7,103.9,56.8,163.8
	c1.5,42.5,1.2,90-28.1,120.9c-28.6,30.1-74.7,33.6-116.2,34.3c-309.3,5.4-618.3-33.3-927.5-24.6c-287.6,8.1-599.8,81.8-875.7,0.4
	C722,724.8,870.5,635.6,1003,613.5s268-7.2,401.2,9.9C1537.4,640.4,1671.9,659.5,1805.5,645.7L1805.5,645.7z"/>
</svg>
